<svg width="132" height="24" viewBox="0 0 132 24" fill="none" xmlns="http://www.w3.org/2000/svg">
<path fill-rule="evenodd" clip-rule="evenodd" d="M7.87727 2.06C8.94364 2.01091 9.28364 2 12 2C14.7164 2 15.0564 2.01182 16.1218 2.06C17.1873 2.10818 17.9145 2.27818 18.5509 2.52455C19.2173 2.77636 19.8218 3.17 20.3218 3.67909C20.8309 4.17818 21.2236 4.78182 21.4745 5.44909C21.7218 6.08545 21.8909 6.81273 21.94 7.87636C21.9891 8.94455 22 9.28455 22 12C22 14.7164 21.9882 15.0564 21.94 16.1227C21.8918 17.1864 21.7218 17.9136 21.4745 18.55C21.2236 19.2174 20.8303 19.822 20.3218 20.3218C19.8218 20.8309 19.2173 21.2236 18.5509 21.4745C17.9145 21.7218 17.1873 21.8909 16.1236 21.94C15.0564 21.9891 14.7164 22 12 22C9.28364 22 8.94364 21.9882 7.87727 21.94C6.81364 21.8918 6.08636 21.7218 5.45 21.4745C4.78266 21.2236 4.17802 20.8302 3.67818 20.3218C3.16944 19.8224 2.77574 19.2181 2.52455 18.5509C2.27818 17.9145 2.10909 17.1873 2.06 16.1236C2.01091 15.0555 2 14.7155 2 12C2 9.28364 2.01182 8.94364 2.06 7.87818C2.10818 6.81273 2.27818 6.08545 2.52455 5.44909C2.77611 4.78189 3.17011 4.17756 3.67909 3.67818C4.17822 3.16955 4.78225 2.77586 5.44909 2.52455C6.08545 2.27818 6.81273 2.10909 7.87636 2.06H7.87727ZM16.0409 3.86C14.9864 3.81182 14.67 3.80182 12 3.80182C9.33 3.80182 9.01364 3.81182 7.95909 3.86C6.98364 3.90455 6.45455 4.06727 6.10182 4.20455C5.63545 4.38636 5.30182 4.60182 4.95182 4.95182C4.62004 5.27459 4.36471 5.66753 4.20455 6.10182C4.06727 6.45455 3.90455 6.98364 3.86 7.95909C3.81182 9.01364 3.80182 9.33 3.80182 12C3.80182 14.67 3.81182 14.9864 3.86 16.0409C3.90455 17.0164 4.06727 17.5455 4.20455 17.8982C4.36455 18.3318 4.62 18.7255 4.95182 19.0482C5.27455 19.38 5.66818 19.6355 6.10182 19.7955C6.45455 19.9327 6.98364 20.0955 7.95909 20.14C9.01364 20.1882 9.32909 20.1982 12 20.1982C14.6709 20.1982 14.9864 20.1882 16.0409 20.14C17.0164 20.0955 17.5455 19.9327 17.8982 19.7955C18.3645 19.6136 18.6982 19.3982 19.0482 19.0482C19.38 18.7255 19.6355 18.3318 19.7955 17.8982C19.9327 17.5455 20.0955 17.0164 20.14 16.0409C20.1882 14.9864 20.1982 14.67 20.1982 12C20.1982 9.33 20.1882 9.01364 20.14 7.95909C20.0955 6.98364 19.9327 6.45455 19.7955 6.10182C19.6136 5.63545 19.3982 5.30182 19.0482 4.95182C18.7254 4.62006 18.3325 4.36474 17.8982 4.20455C17.5455 4.06727 17.0164 3.90455 16.0409 3.86ZM10.7227 15.0827C11.4361 15.3797 12.2303 15.4197 12.9699 15.1961C13.7095 14.9725 14.3485 14.499 14.7778 13.8566C15.2071 13.2142 15.4001 12.4426 15.3237 11.6737C15.2473 10.9049 14.9064 10.1863 14.3591 9.64091C14.0102 9.29225 13.5884 9.02528 13.1239 8.85922C12.6595 8.69317 12.164 8.63215 11.6732 8.68056C11.1823 8.72897 10.7083 8.88562 10.2853 9.13921C9.86223 9.3928 9.50068 9.73704 9.22664 10.1471C8.9526 10.5572 8.7729 11.023 8.70047 11.5109C8.62804 11.9988 8.66468 12.4966 8.80776 12.9687C8.95084 13.4407 9.1968 13.8751 9.52793 14.2407C9.85906 14.6062 10.2671 14.8938 10.7227 15.0827ZM8.36545 8.36545C8.84275 7.88816 9.40938 7.50955 10.033 7.25124C10.6566 6.99293 11.325 6.85998 12 6.85998C12.675 6.85998 13.3434 6.99293 13.967 7.25124C14.5906 7.50955 15.1573 7.88816 15.6345 8.36545C16.1118 8.84275 16.4905 9.40938 16.7488 10.033C17.0071 10.6566 17.14 11.325 17.14 12C17.14 12.675 17.0071 13.3434 16.7488 13.967C16.4905 14.5906 16.1118 15.1573 15.6345 15.6345C14.6706 16.5985 13.3632 17.14 12 17.14C10.6368 17.14 9.3294 16.5985 8.36545 15.6345C7.40151 14.6706 6.85998 13.3632 6.85998 12C6.85998 10.6368 7.40151 9.3294 8.36545 8.36545ZM18.28 7.62545C18.3983 7.51388 18.493 7.37971 18.5585 7.23089C18.624 7.08206 18.6589 6.92161 18.6613 6.75903C18.6637 6.59645 18.6334 6.43504 18.5723 6.28437C18.5111 6.1337 18.4204 5.99683 18.3054 5.88185C18.1904 5.76688 18.0536 5.67614 17.9029 5.61502C17.7522 5.55389 17.5908 5.52361 17.4282 5.52598C17.2657 5.52835 17.1052 5.56332 16.9564 5.62881C16.8076 5.69431 16.6734 5.789 16.5618 5.90727C16.3448 6.1373 16.226 6.44284 16.2306 6.75903C16.2352 7.07522 16.3629 7.37716 16.5865 7.60077C16.8101 7.82437 17.1121 7.95203 17.4282 7.95664C17.7444 7.96125 18.05 7.84245 18.28 7.62545Z" fill="#B6B6B6"/>
<path d="M38 12.06C38.0006 14.456 38.8505 16.7732 40.397 18.5952C41.9435 20.4172 44.0851 21.6244 46.437 21.9999V14.9678H43.9V12.06H46.44V9.84645C46.3839 9.32836 46.4419 8.80421 46.6098 8.31121C46.7777 7.8182 47.0515 7.36845 47.4116 6.9939C47.7718 6.61934 48.2095 6.32916 48.6936 6.14398C49.1778 5.95879 49.6965 5.88314 50.213 5.9224C50.963 5.93447 51.713 6.00189 52.453 6.12363V8.5978H51.189C50.9742 8.56948 50.7558 8.59011 50.5499 8.65815C50.3441 8.72618 50.1561 8.83989 49.9998 8.99087C49.8435 9.14185 49.7229 9.32624 49.647 9.53041C49.571 9.73458 49.5416 9.95331 49.561 10.1704V12.06H52.332L51.889 14.9688H49.561V21.9999C51.4486 21.6998 53.2112 20.8617 54.6402 19.5849C56.0691 18.3081 57.1045 16.6461 57.6238 14.7956C58.143 12.9451 58.1244 10.9837 57.5702 9.14348C57.0159 7.30329 55.9492 5.66143 54.4964 4.41229C53.0435 3.16314 51.2653 2.35903 49.3724 2.09515C47.4794 1.83126 45.5509 2.11866 43.8153 2.92332C42.0796 3.72798 40.6094 5.01619 39.5788 6.63545C38.5482 8.2547 38.0003 10.1372 38 12.06Z" fill="#B6B6B6"/>
<path d="M95.643 4.93702C94.808 5.30702 93.911 5.55702 92.968 5.67002C93.941 5.08781 94.669 4.17148 95.016 3.09202C94.1019 3.63501 93.1014 4.01721 92.058 4.22202C91.3564 3.47288 90.4271 2.97634 89.4143 2.80949C88.4016 2.64264 87.3621 2.81481 86.4572 3.29927C85.5524 3.78373 84.8328 4.55338 84.4102 5.48872C83.9875 6.42406 83.8855 7.47277 84.12 8.47202C82.2677 8.37901 80.4556 7.89757 78.8014 7.05892C77.1472 6.22028 75.6879 5.04318 74.518 3.60402C74.118 4.29402 73.888 5.09402 73.888 5.94602C73.8876 6.71301 74.0764 7.46826 74.4379 8.14475C74.7993 8.82124 75.3222 9.39805 75.96 9.82402C75.2203 9.80048 74.4969 9.6006 73.85 9.24102V9.30102C73.8499 10.3768 74.222 11.4194 74.9032 12.252C75.5843 13.0846 76.5326 13.6559 77.587 13.869C76.9008 14.0547 76.1813 14.0821 75.483 13.949C75.7805 14.8746 76.36 15.684 77.1404 16.2639C77.9208 16.8438 78.8629 17.1652 79.835 17.183C78.1848 18.4784 76.1469 19.1811 74.049 19.178C73.6774 19.1781 73.3061 19.1564 72.937 19.113C75.0665 20.4822 77.5454 21.2088 80.077 21.206C88.647 21.206 93.332 14.108 93.332 7.95202C93.332 7.75202 93.327 7.55002 93.318 7.35002C94.2293 6.69099 95.0159 5.87491 95.641 4.94002L95.643 4.93702Z" fill="#B6B6B6"/>
<path d="M129.593 7.20301C129.479 6.78041 129.256 6.39501 128.947 6.08518C128.638 5.77534 128.253 5.55187 127.831 5.43701C126.265 5.00701 120 5.00001 120 5.00001C120 5.00001 113.736 4.99301 112.169 5.40401C111.747 5.52415 111.363 5.75078 111.054 6.06214C110.744 6.3735 110.52 6.75913 110.403 7.18201C109.99 8.74801 109.986 11.996 109.986 11.996C109.986 11.996 109.982 15.26 110.392 16.81C110.622 17.667 111.297 18.344 112.155 18.575C113.737 19.005 119.985 19.012 119.985 19.012C119.985 19.012 126.25 19.019 127.816 18.609C128.238 18.4943 128.624 18.2714 128.934 17.9622C129.244 17.653 129.467 17.2682 129.583 16.846C129.997 15.281 130 12.034 130 12.034C130 12.034 130.02 8.76901 129.593 7.20301ZM117.996 15.005L118.001 9.00501L123.208 12.01L117.996 15.005Z" fill="#B6B6B6"/>
</svg>
